# xmcd CD database file
#
# Track frame offsets:
#	150
#	21568
#	44094
#	56594
#	85866
#	103473
#	119066
#	145677
#	163601
#	188084
#	201131
#	216493
#	234846
#	258706
#	272708
#	288911
#
# Disc length: 4138 seconds
#
# Revision: 0
# Processed by: cddbd v1.5.1PL0 Copyright (c) Steve Scherf et al.
# Submitted via: CDex 1.51
#
DISCID=fd102810
DTITLE=Pete Allan Jazz Band - Movin' on
DYEAR=1999
DGENRE=Jazz
TTITLE0=Under the bamboo tree
TTITLE1=Fidgety feet
TTITLE2=Cabaret
TTITLE3=Just a closer walk with thee
TTITLE4=Wise guy
TTITLE5=Hello brother
TTITLE6=Down in honkey tonk town
TTITLE7=How can you face me
TTITLE8=Harlem folk dance
TTITLE9=La vie en rose
TTITLE10=At the darktown strutters ball
TTITLE11=Movin' on
TTITLE12=Just a gigolo
TTITLE13=Moose march
TTITLE14=I had someone else before I had you
TTITLE15=Millenberg joys
EXTD=YEAR: 1999
EXTT0=
EXTT1=
EXTT2=
EXTT3=
EXTT4=
EXTT5=
EXTT6=
EXTT7=
EXTT8=
EXTT9=
EXTT10=
EXTT11=
EXTT12=
EXTT13=
EXTT14=
EXTT15=
PLAYORDER=
